<?xml version="1.0" encoding="iso-8859-1"?>
<!-- Generator: Adobe Illustrator 19.0.0, SVG Export Plug-In . SVG Version: 6.00 Build 0)  -->
<svg version="1.1" id="Capa_1" xmlns="http://www.w3.org/2000/svg" xmlns:xlink="http://www.w3.org/1999/xlink" x="0px" y="0px"
	 viewBox="0 0 430.4 430.4" style="enable-background:new 0 0 430.4 430.4;" xml:space="preserve">
<circle style="fill:#9DCA5B;" cx="215.2" cy="215.2" r="215.2"/>
<g>
	<path style="fill:#60574D;" d="M368.8,206.4H192.4l0,0H61.6c-4.8,0-8.8,4-8.8,8.8c0,4.8,4,8.8,8.8,8.8H238l0,0h130.4
		c4.8,0,8.8-4,8.8-8.8C377.6,210.4,373.6,206.4,368.8,206.4z"/>
	<circle style="fill:#60574D;" cx="150" cy="215.2" r="57.6"/>
</g>
<circle style="fill:#EFE4CF;" cx="150" cy="215.2" r="42.4"/>
<path style="fill:#FEF6E4;" d="M139.2,174c-18.4,4.8-32,21.2-32,41.2s13.6,36.4,32,41.2c18.4-4.8,32-21.2,32-41.2
	S157.6,178.8,139.2,174z"/>
<circle style="fill:#60574D;" cx="280.4" cy="215.2" r="57.6"/>
<circle style="fill:#EFE4CF;" cx="280.4" cy="215.2" r="42.4"/>
<path style="fill:#FEF6E4;" d="M270,174c-18.4,4.8-32,21.2-32,41.2s13.6,36.4,32,41.2c18.4-4.8,32-21.2,32-41.2S288.4,178.8,270,174
	z"/>
<g>
</g>
<g>
</g>
<g>
</g>
<g>
</g>
<g>
</g>
<g>
</g>
<g>
</g>
<g>
</g>
<g>
</g>
<g>
</g>
<g>
</g>
<g>
</g>
<g>
</g>
<g>
</g>
<g>
</g>
</svg>
